{
  "asset": {
    "generator": "Khronos glTF Blender I/O v3.4.50",
    "version": "2.0"
  },
  "scene": 0,
  "scenes": [
    {
      "name": "Scene",
      "nodes": [
        0,
        1
      ]
    }
  ],
  "nodes": [
    {
      "mesh": 0,
      "name": "Curve",
      "rotation": [
        -0.47337350249290466,
        -0.5252784490585327,
        -0.4733735918998718,
        0.5252785086631775
      ],
      "scale": [
        0.6011313199996948,
        0.6011313199996948,
        0.6011313199996948
      ],
      "translation": [
        -0.2803039252758026,
        0.05978497117757797,
        0.06366948783397675
      ]
    },
    {
      "mesh": 1,
      "name": "Curve.001",
      "rotation": [
        -0.47337350249290466,
        -0.5252784490585327,
        -0.4733735918998718,
        0.5252785086631775
      ],
      "scale": [
        0.6011313199996948,
        0.6011313199996948,
        0.6011313199996948
      ],
      "translation": [
        -0.28772976994514465,
        0.131028950214386,
        0.11919275671243668
      ]
    }
  ],
  "materials": [
    {
      "doubleSided": true,
      "name": "Material.002",
      "pbrMetallicRoughness": {
        "baseColorFactor": [
          1,
          0.5866624116897583,
          0.013995985500514507,
          1
        ],
        "metallicFactor": 0,
        "roughnessFactor": 0.25
      }
    },
    {
      "doubleSided": true,
      "name": "Material.001",
      "pbrMetallicRoughness": {
        "baseColorFactor": [
          0.02176143415272236,
          0.08486296981573105,
          0.4969368577003479,
          1
        ],
        "metallicFactor": 0,
        "roughnessFactor": 0.25
      }
    }
  ],
  "meshes": [
    {
      "name": "Curve",
      "primitives": [
        {
          "attributes": {
            "POSITION": 0,
            "TEXCOORD_0": 1,
            "NORMAL": 2
          },
          "indices": 3,
          "material": 0
        }
      ]
    },
    {
      "name": "Curve.001",
      "primitives": [
        {
          "attributes": {
            "POSITION": 4,
            "TEXCOORD_0": 5,
            "NORMAL": 6
          },
          "indices": 7,
          "material": 1
        }
      ]
    }
  ],
  "accessors": [
    {
      "bufferView": 0,
      "componentType": 5126,
      "count": 9131,
      "max": [
        0.11107032746076584,
        0.022499999031424522,
        0.1253928542137146
      ],
      "min": [
        -0.09654035419225693,
        -0.022499999031424522,
        -0.08262734860181808
      ],
      "type": "VEC3"
    },
    {
      "bufferView": 1,
      "componentType": 5126,
      "count": 9131,
      "type": "VEC2"
    },
    {
      "bufferView": 2,
      "componentType": 5126,
      "count": 9131,
      "type": "VEC3"
    },
    {
      "bufferView": 3,
      "componentType": 5123,
      "count": 39312,
      "type": "SCALAR"
    },
    {
      "bufferView": 4,
      "componentType": 5126,
      "count": 9184,
      "max": [
        0.09654128551483154,
        0.022499999031424522,
        0.08262687921524048
      ],
      "min": [
        -0.11107034981250763,
        -0.022499999031424522,
        -0.1253928691148758
      ],
      "type": "VEC3"
    },
    {
      "bufferView": 5,
      "componentType": 5126,
      "count": 9184,
      "type": "VEC2"
    },
    {
      "bufferView": 6,
      "componentType": 5126,
      "count": 9184,
      "type": "VEC3"
    },
    {
      "bufferView": 7,
      "componentType": 5123,
      "count": 39312,
      "type": "SCALAR"
    }
  ],
  "bufferViews": [
    {
      "buffer": 0,
      "byteLength": 109572,
      "byteOffset": 0,
      "target": 34962
    },
    {
      "buffer": 0,
      "byteLength": 73048,
      "byteOffset": 109572,
      "target": 34962
    },
    {
      "buffer": 0,
      "byteLength": 109572,
      "byteOffset": 182620,
      "target": 34962
    },
    {
      "buffer": 0,
      "byteLength": 78624,
      "byteOffset": 292192,
      "target": 34963
    },
    {
      "buffer": 0,
      "byteLength": 110208,
      "byteOffset": 370816,
      "target": 34962
    },
    {
      "buffer": 0,
      "byteLength": 73472,
      "byteOffset": 481024,
      "target": 34962
    },
    {
      "buffer": 0,
      "byteLength": 110208,
      "byteOffset": 554496,
      "target": 34962
    },
    {
      "buffer": 0,
      "byteLength": 78624,
      "byteOffset": 664704,
      "target": 34963
    }
  ],
  "buffers": [
    {
      "uri": "python_data.bin",
      "byteLength": 743328
    }
  ]
}